# xmcd CD database file
#
# Track frame offsets:
#	150
#	18827
#	31632
#	50707
#	66912
#	80512
#	94842
#	113320
#	127367
#	145300
#	160417
#	174285
#	185962
#	202075
#	215987
#	230847
#	246440
#	264750
#	286587
#	301062
#
# Disc length: 4214 seconds
#
# Revision: 3
# Processed by: cddbd v1.4PL0 Copyright (c) Steve Scherf et al.
# Submitted via: CDex 1.40Beta9
#
DISCID=25107414
DTITLE=Various Artist - 1 HITS WONDERS
DYEAR=1900
DGENRE=Blues
TTITLE0=Who were you with the moonlight (Dollar)
TTITLE1=Sky high (Jigsaw)
TTITLE2=Come to me (France Joli)
TTITLE3=Baby come back (Player)
TTITLE4=Doctors orders (Carol Douglas)
TTITLE5=Afternoon delight (Starland Vocal Band)
TTITLE6=Black betty (Ram Jam)
TTITLE7=I can´t stand the rain (Eruption)
TTITLE8=Emotion (Samantha Sang)
TTITLE9=Pop Muzik (M)
TTITLE10=Magic (Pilot)
TTITLE11=Jeans on David Dundas)
TTITLE12=My angel baby (Toby Beau)
TTITLE13=A fifth of beethoven (Walter Murphy)
TTITLE14=Play that funky music (Wild Cherry)
TTITLE15=Living next door to Alice (Smokie)
TTITLE16=My sharona (The Knack)
TTITLE17=Gonna fly now (Bill Conti)
TTITLE18=Take my breath away (Rex Smith)
TTITLE19=Don´t let me be misundersatood (Santa Esmeralda)
EXTD=ID3G: 0
EXTT0=
EXTT1=
EXTT2=
EXTT3=
EXTT4=
EXTT5=
EXTT6=
EXTT7=
EXTT8=
EXTT9=
EXTT10=
EXTT11=
EXTT12=
EXTT13=
EXTT14=
EXTT15=
EXTT16=
EXTT17=
EXTT18=
EXTT19=
PLAYORDER=
